HIERARCHY
ROOT Hips
{
	OFFSET 0.000000 71.427986 0.000000
	CHANNELS 6 Xposition Yposition Zposition Xrotation Yrotation Zrotation
	JOINT Pelvis
	{
		OFFSET 0.000000 0.000000 0.000000
		CHANNELS 3 Xrotation Yrotation Zrotation
		JOINT LeftUpLeg
		{
			OFFSET 6.797100 -2.508499 -1.318700
			CHANNELS 3 Xrotation Yrotation Zrotation
			JOINT LeftLeg
			{
				OFFSET 0.069008 -29.241863 0.690200
				CHANNELS 3 Xrotation Yrotation Zrotation
				JOINT LeftFoot
				{
					OFFSET -0.069008 -29.568123 -0.266800
					CHANNELS 3 Xrotation Yrotation Zrotation
					JOINT LeftToeBase
					{
						OFFSET 3.145500 -8.631000 16.059900
						CHANNELS 3 Xrotation Yrotation Zrotation
						End Site
						{
							OFFSET 0.000000 18.501587 0.000000
						}
					}
				}
			}
			JOINT Left_ShortSleeve
			{
				OFFSET 0.265923 -10.480953 1.153800
				CHANNELS 3 Xrotation Yrotation Zrotation
				End Site
				{
					OFFSET 1.725763 19.823879 0.000000
				}
			}
		}
		JOINT RightUpLeg
		{
			OFFSET -6.797100 -2.508499 -1.318700
			CHANNELS 3 Xrotation Yrotation Zrotation
			JOINT RightLeg
			{
				OFFSET -0.082453 -29.241932 0.688000
				CHANNELS 3 Xrotation Yrotation Zrotation
				JOINT RightFoot
				{
					OFFSET 0.082453 -29.568058 -0.264600
					CHANNELS 3 Xrotation Yrotation Zrotation
					JOINT RightToeBase
					{
						OFFSET -3.115300 -8.682800 16.113400
						CHANNELS 3 Xrotation Yrotation Zrotation
						End Site
						{
							OFFSET 0.000000 18.567114 0.000000
						}
					}
				}
			}
			JOINT Right_ShortSleeve
			{
				OFFSET -0.265923 -10.480953 1.153800
				CHANNELS 3 Xrotation Yrotation Zrotation
				End Site
				{
					OFFSET -1.725766 19.823910 0.000000
				}
			}
		}
	}
	JOINT Spine
	{
		OFFSET 0.000000 13.368103 0.470500
		CHANNELS 3 Xrotation Yrotation Zrotation
		JOINT Spine1
		{
			OFFSET 0.147000 13.837402 0.538800
			CHANNELS 3 Xrotation Yrotation Zrotation
			JOINT Spine2
			{
				OFFSET 0.168000 16.242897 -1.435500
				CHANNELS 3 Xrotation Yrotation Zrotation
				JOINT Neck
				{
					OFFSET 0.217200 18.631500 -1.679100
					CHANNELS 3 Xrotation Yrotation Zrotation
					JOINT Head
					{
						OFFSET 0.000000 6.599396 1.385900
						CHANNELS 3 Xrotation Yrotation Zrotation
						JOINT Hat
						{
							OFFSET -0.532200 27.220596 -10.096100
							CHANNELS 3 Xrotation Yrotation Zrotation
							End Site
							{
								OFFSET 0.000000 22.029861 0.000000
							}
						}
						JOINT HairD
						{
							OFFSET -10.777400 17.437393 -1.325900
							CHANNELS 3 Xrotation Yrotation Zrotation
							JOINT HairD1
							{
								OFFSET -3.290299 -11.051193 1.062200
								CHANNELS 3 Xrotation Yrotation Zrotation
								End Site
								{
									OFFSET 0.000000 11.579437 0.000000
								}
							}
						}
						JOINT HairB
						{
							OFFSET -10.777400 17.437393 1.467900
							CHANNELS 3 Xrotation Yrotation Zrotation
							JOINT HairB1
							{
								OFFSET -1.561200 -12.956299 3.590200
								CHANNELS 3 Xrotation Yrotation Zrotation
								End Site
								{
									OFFSET 0.000000 13.534866 0.000000
								}
							}
						}
						JOINT HairA
						{
							OFFSET 9.713100 17.437393 1.467900
							CHANNELS 3 Xrotation Yrotation Zrotation
							JOINT HairA1
							{
								OFFSET 1.561200 -12.956299 3.590200
								CHANNELS 3 Xrotation Yrotation Zrotation
								End Site
								{
									OFFSET 0.000000 13.534866 0.000000
								}
							}
						}
						JOINT HairC
						{
							OFFSET 9.713100 17.437393 -1.325900
							CHANNELS 3 Xrotation Yrotation Zrotation
							JOINT HairC1
							{
								OFFSET 3.290300 -11.051193 1.062200
								CHANNELS 3 Xrotation Yrotation Zrotation
								End Site
								{
									OFFSET 0.000000 11.579437 0.000000
								}
							}
						}
					}
				}
				JOINT LeftShoulder
				{
					OFFSET 5.101800 15.108002 -2.763700
					CHANNELS 3 Xrotation Yrotation Zrotation
					JOINT LeftArm
					{
						OFFSET 9.825497 2.506317 -1.597400
						CHANNELS 3 Xrotation Yrotation Zrotation
						JOINT LeftForeArm
						{
							OFFSET 21.966244 0.000000 0.000000
							CHANNELS 3 Xrotation Yrotation Zrotation
							JOINT LeftHand
							{
								OFFSET 33.879036 0.000000 0.000000
								CHANNELS 3 Xrotation Yrotation Zrotation
								JOINT LeftHandThumb1
								{
									OFFSET 6.715286 -2.359680 3.363841
									CHANNELS 3 Xrotation Yrotation Zrotation
									JOINT LeftHandThumb2
									{
										OFFSET 2.507072 -1.447464 1.447461
										CHANNELS 3 Xrotation Yrotation Zrotation
										JOINT LeftHandThumb3
										{
											OFFSET 2.898338 -1.673355 1.673357
											CHANNELS 3 Xrotation Yrotation Zrotation
											End Site
											{
												OFFSET -0.295959 3.727692 -0.131651
											}
										}
									}
								}
								JOINT LeftHandIndex1
								{
									OFFSET 14.190811 -0.254547 3.840278
									CHANNELS 3 Xrotation Yrotation Zrotation
									JOINT LeftHandIndex2
									{
										OFFSET 3.551727 0.000000 -0.000000
										CHANNELS 3 Xrotation Yrotation Zrotation
										JOINT LeftHandIndex3
										{
											OFFSET 2.894196 0.000000 0.000000
											CHANNELS 3 Xrotation Yrotation Zrotation
											End Site
											{
												OFFSET -1.000603 2.690872 0.366626
											}
										}
									}
								}
								JOINT LeftHandMiddle1
								{
									OFFSET 13.776489 0.000000 0.000000
									CHANNELS 3 Xrotation Yrotation Zrotation
									JOINT LeftHandMiddle2
									{
										OFFSET 3.438232 0.000000 0.000000
										CHANNELS 3 Xrotation Yrotation Zrotation
										JOINT LeftHandMiddle3
										{
											OFFSET 3.691551 0.000000 0.000000
											CHANNELS 3 Xrotation Yrotation Zrotation
											End Site
											{
												OFFSET -1.082298 3.499527 0.457670
											}
										}
									}
								}
								JOINT LeftHandRing1
								{
									OFFSET 13.966164 -0.268127 -3.067488
									CHANNELS 3 Xrotation Yrotation Zrotation
									JOINT LeftHandRing2
									{
										OFFSET 3.162567 0.000000 0.000000
										CHANNELS 3 Xrotation Yrotation Zrotation
										JOINT LeftHandRing3
										{
											OFFSET 3.324348 0.000000 0.000000
											CHANNELS 3 Xrotation Yrotation Zrotation
											End Site
											{
												OFFSET -0.861900 3.184998 0.405154
											}
										}
									}
								}
								JOINT LeftHandPinky1
								{
									OFFSET 13.131393 -0.168503 -5.746925
									CHANNELS 3 Xrotation Yrotation Zrotation
									JOINT LeftHandPinky2
									{
										OFFSET 2.849182 0.000000 0.000000
										CHANNELS 3 Xrotation Yrotation Zrotation
										JOINT LeftHandPinky3
										{
											OFFSET 2.805038 0.000000 0.000000
											CHANNELS 3 Xrotation Yrotation Zrotation
											End Site
											{
												OFFSET -0.882500 2.642609 0.325652
											}
										}
									}
								}
							}
							JOINT Left_Sleeve
							{
								OFFSET 6.592125 -0.646545 0.805568
								CHANNELS 3 Xrotation Yrotation Zrotation
								End Site
								{
									OFFSET -0.000179 20.275787 -0.000000
								}
							}
						}
					}
				}
				JOINT RightShoulder
				{
					OFFSET -5.731700 15.108002 -2.763700
					CHANNELS 3 Xrotation Yrotation Zrotation
					JOINT RightArm
					{
						OFFSET -9.825497 2.506317 -1.597400
						CHANNELS 3 Xrotation Yrotation Zrotation
						JOINT RightForeArm
						{
							OFFSET -21.966242 0.000000 0.000000
							CHANNELS 3 Xrotation Yrotation Zrotation
							JOINT RightHand
							{
								OFFSET -33.879032 0.000000 0.000000
								CHANNELS 3 Xrotation Yrotation Zrotation
								JOINT RightHandThumb1
								{
									OFFSET -6.715286 -2.359680 3.363841
									CHANNELS 3 Xrotation Yrotation Zrotation
									JOINT RightHandThumb2
									{
										OFFSET -2.507072 -1.447464 1.447461
										CHANNELS 3 Xrotation Yrotation Zrotation
										JOINT RightHandThumb3
										{
											OFFSET -2.898338 -1.673355 1.673357
											CHANNELS 3 Xrotation Yrotation Zrotation
											End Site
											{
												OFFSET 0.295959 3.727692 -0.131651
											}
										}
									}
								}
								JOINT RightHandIndex1
								{
									OFFSET -14.190811 -0.254547 3.840278
									CHANNELS 3 Xrotation Yrotation Zrotation
									JOINT RightHandIndex2
									{
										OFFSET -3.551727 0.000000 -0.000000
										CHANNELS 3 Xrotation Yrotation Zrotation
										JOINT RightHandIndex3
										{
											OFFSET -2.894196 0.000000 0.000000
											CHANNELS 3 Xrotation Yrotation Zrotation
											End Site
											{
												OFFSET 1.000603 2.690872 0.366626
											}
										}
									}
								}
								JOINT RightHandMiddle1
								{
									OFFSET -13.776489 0.000000 0.000000
									CHANNELS 3 Xrotation Yrotation Zrotation
									JOINT RightHandMiddle2
									{
										OFFSET -3.438232 0.000000 0.000000
										CHANNELS 3 Xrotation Yrotation Zrotation
										JOINT RightHandMiddle3
										{
											OFFSET -3.691551 0.000000 0.000000
											CHANNELS 3 Xrotation Yrotation Zrotation
											End Site
											{
												OFFSET 1.082298 3.499527 0.457670
											}
										}
									}
								}
								JOINT RightHandRing1
								{
									OFFSET -13.966164 -0.268127 -3.067488
									CHANNELS 3 Xrotation Yrotation Zrotation
									JOINT RightHandRing2
									{
										OFFSET -3.162567 0.000000 0.000000
										CHANNELS 3 Xrotation Yrotation Zrotation
										JOINT RightHandRing3
										{
											OFFSET -3.324348 0.000000 0.000000
											CHANNELS 3 Xrotation Yrotation Zrotation
											End Site
											{
												OFFSET 0.861900 3.184998 0.405154
											}
										}
									}
								}
								JOINT RightHandPinky1
								{
									OFFSET -13.131393 -0.168503 -5.746925
									CHANNELS 3 Xrotation Yrotation Zrotation
									JOINT RightHandPinky2
									{
										OFFSET -2.849182 0.000000 0.000000
										CHANNELS 3 Xrotation Yrotation Zrotation
										JOINT RightHandPinky3
										{
											OFFSET -2.805038 0.000000 0.000000
											CHANNELS 3 Xrotation Yrotation Zrotation
											End Site
											{
												OFFSET 0.882500 2.642609 0.325652
											}
										}
									}
								}
							}
							JOINT Right_Sleeve
							{
								OFFSET -6.592125 -0.646545 0.805568
								CHANNELS 3 Xrotation Yrotation Zrotation
								End Site
								{
									OFFSET 0.000179 20.275787 -0.000000
								}
							}
						}
					}
				}
				JOINT Bind_Right_JacketString
				{
					OFFSET -3.534800 11.969597 7.200700
					CHANNELS 3 Xrotation Yrotation Zrotation
					JOINT Bind_Right_JacketString1
					{
						OFFSET -0.319900 -6.102600 2.794100
						CHANNELS 3 Xrotation Yrotation Zrotation
						End Site
						{
							OFFSET 0.000000 6.719452 0.000000
						}
					}
				}
				JOINT Bind_Left_JacketString
				{
					OFFSET 2.904800 11.969597 7.200700
					CHANNELS 3 Xrotation Yrotation Zrotation
					JOINT Bind_Left_JacketString1
					{
						OFFSET 0.364800 -5.904503 3.186800
						CHANNELS 3 Xrotation Yrotation Zrotation
						End Site
						{
							OFFSET 0.000000 6.719513 0.000000
						}
					}
				}
				JOINT HairE
				{
					OFFSET 5.915200 17.612701 -11.592200
					CHANNELS 3 Xrotation Yrotation Zrotation
					JOINT HairE1
					{
						OFFSET 0.289200 -7.171898 -1.284500
						CHANNELS 3 Xrotation Yrotation Zrotation
						End Site
						{
							OFFSET 0.000000 7.291756 0.000000
						}
					}
				}
				JOINT HairF
				{
					OFFSET -0.864800 17.612701 -11.592200
					CHANNELS 3 Xrotation Yrotation Zrotation
					JOINT HairF1
					{
						OFFSET 0.000000 -14.087097 -2.127501
						CHANNELS 3 Xrotation Yrotation Zrotation
						End Site
						{
							OFFSET 0.000000 14.246841 0.000000
						}
					}
				}
				JOINT HairG
				{
					OFFSET -8.087700 17.612701 -11.592200
					CHANNELS 3 Xrotation Yrotation Zrotation
					JOINT HairG1
					{
						OFFSET -0.293600 -6.081398 -0.910100
						CHANNELS 3 Xrotation Yrotation Zrotation
						End Site
						{
							OFFSET 0.000000 6.156120 0.000000
						}
					}
				}
			}
		}
	}
	JOINT Pouch
	{
		OFFSET 0.000000 4.394501 10.847300
		CHANNELS 3 Xrotation Yrotation Zrotation
		End Site
		{
			OFFSET 0.000000 21.880577 0.000000
		}
	}
	JOINT Bag
	{
		OFFSET -13.229000 4.813004 -0.593300
		CHANNELS 3 Xrotation Yrotation Zrotation
		End Site
		{
			OFFSET 0.000000 21.880577 0.000000
		}
	}
	JOINT OccupyGuyFacialAnim_Joint
	{
		OFFSET 1.000000 -70.206398 -1.655000
		CHANNELS 3 Xrotation Yrotation Zrotation
		End Site
		{
			OFFSET 0.000000 21.880577 0.000000
		}
	}
}
MOTION
Frames: 4
Frame Time: 0.033333
-7.205873 47.469284 123.769455 192.921985 185.514959 201.354919 -0.000000 0.000000 -0.000004 -74.213680 8.486040 34.610013 71.313561 -5.672759 1.158575 4.597991 -0.801679 11.664291 -0.000001 -0.000001 -0.000002 -0.000001 0.000002 -0.000003 -85.771412 9.376082 -22.203927 106.177210 -0.377497 -7.688063 -35.789088 -1.154478 3.398349 0.000000 0.000002 0.000000 0.000000 -0.000000 -0.000002 31.122027 -4.780705 -4.554866 2.827408 -0.272849 -2.613844 2.828642 -0.108352 -2.655657 -0.230459 1.435223 5.036490 -39.096959 2.887071 -11.497038 0.000001 0.000000 -0.000000 0.000001 0.000000 -0.000000 0.000001 0.000000 -0.000000 0.000001 0.000000 -0.000000 -0.000000 0.000000 -0.000000 0.000001 0.000000 -0.000000 -0.000000 0.000000 -0.000000 0.000001 0.000000 -0.000000 0.000001 0.000000 -0.000000 2.708186 2.378702 -0.357500 -19.438729 38.460081 -47.632144 -59.283624 -5.472432 -4.232684 41.393678 12.455447 0.239218 -2.643947 2.710176 0.588561 -0.695206 1.445588 -0.497592 -0.000000 -0.000000 0.000001 -1.357053 1.108134 10.936701 0.971707 -0.520751 -17.972260 0.000001 -0.000000 -0.000000 -0.080975 4.324880 1.655022 -0.022756 -4.852902 -18.130321 0.000002 0.000000 -0.000001 -0.126844 -0.829776 -5.592618 -0.397651 -1.522847 -29.836408 -0.000000 -0.000001 -0.000002 -0.392349 -1.376242 -18.315349 0.381384 1.187470 -15.394398 -0.000000 0.000001 0.000005 0.000003 -0.000001 0.000001 2.142317 -5.872600 -0.786571 20.363593 1.412580 29.805839 -84.699216 3.614801 2.166728 -12.409283 -54.049780 -15.016989 24.918308 -21.323371 30.343037 9.041929 8.262094 -18.001799 0.000004 0.000000 -0.000001 -0.063519 -3.017266 61.424397 0.006485 4.395169 66.609173 -0.000000 -0.000000 -0.000002 -1.221731 -0.129495 68.273690 -0.078685 4.899251 84.501762 0.000001 0.000001 -0.000004 0.882073 -4.623023 79.192669 -0.721555 1.141037 73.254359 -0.000001 -0.000001 0.000002 -3.962378 0.099749 86.766816 -0.027256 0.052910 54.416131 -0.000001 0.000000 -0.000001 0.000000 0.000003 0.000000 0.000001 0.000000 0.000000 0.000001 0.000000 -0.000001 0.000001 0.000000 0.000001 0.000001 0.000000 0.000001 0.000001 0.000000 0.000000 0.000001 0.000000 -0.000001 0.000001 0.000000 0.000001 0.000001 0.000000 0.000001 0.000001 0.000000 0.000000 0.000001 0.000000 -0.000001 -0.000000 0.000000 -0.000004 -0.000000 0.000000 -0.000004 -0.000000 0.000000 -0.000004 
-5.451130 46.956230 129.460739 194.493380 191.052016 202.824544 -0.000000 0.000002 -0.000002 -80.474484 10.943385 30.907818 58.661066 -13.658200 3.432498 5.789444 2.755858 7.525977 -0.000000 0.000000 0.000001 0.000001 0.000002 -0.000001 -86.084938 5.674495 -25.016835 107.919338 -8.773394 -10.112551 -40.605843 -3.801988 10.172899 -0.000000 -0.000001 -0.000000 -0.000001 -0.000001 -0.000002 30.832208 -5.261590 -6.135360 2.436365 -0.231796 -3.202360 2.433956 -0.037589 -3.252982 -0.598928 0.967387 4.683955 -38.396281 6.289097 -9.371146 0.000001 -0.000000 -0.000000 0.000001 -0.000000 -0.000000 0.000001 -0.000000 -0.000000 0.000001 -0.000000 -0.000000 -0.000000 -0.000000 0.000000 0.000001 -0.000000 -0.000000 -0.000000 -0.000000 0.000000 0.000001 -0.000000 -0.000000 0.000001 -0.000000 -0.000000 1.533803 -3.157050 4.467868 -26.545242 39.905250 -46.025168 -66.571771 -4.385013 -5.803106 39.917074 7.568322 3.393477 -4.093060 4.181651 0.977857 -1.037430 2.268385 -0.723411 0.000001 0.000005 -0.000001 -0.383635 3.334849 11.281223 0.971176 -0.857694 -18.342159 0.000004 0.000001 -0.000000 -0.042136 4.691023 0.808820 -0.022342 -4.851662 -16.977420 0.000001 -0.000001 -0.000003 -0.099636 -0.737871 -6.880396 -0.171670 -1.370876 -29.645159 0.000003 -0.000000 -0.000003 -0.249159 -0.952967 -16.069881 0.751205 1.482802 -21.879603 0.000002 0.000001 -0.000001 0.000000 -0.000004 -0.000000 2.566725 -9.216265 2.539719 23.487745 6.254400 27.439293 -89.083644 3.369719 2.377319 -12.026945 -53.977694 -14.652434 24.918309 -21.323369 30.343030 9.041930 8.262091 -18.001795 0.000002 -0.000001 -0.000002 -0.063517 -3.017267 61.424403 0.006486 4.395169 66.609173 0.000001 -0.000000 -0.000002 -1.221732 -0.129495 68.273690 -0.078684 4.899250 84.501755 0.000002 0.000001 -0.000002 0.882072 -4.623023 79.192669 -0.721556 1.141037 73.254366 0.000001 0.000001 -0.000002 -3.962378 0.099750 86.766816 -0.027254 0.052908 54.416134 -0.000001 0.000001 0.000001 -0.000000 -0.000004 -0.000001 0.000000 0.000000 0.000000 -0.000003 0.000000 -0.000001 0.000000 0.000000 -0.000000 0.000000 0.000000 -0.000000 0.000000 0.000000 0.000000 -0.000003 0.000000 -0.000000 0.000000 0.000000 -0.000000 0.000000 0.000000 -0.000000 0.000000 0.000000 0.000000 -0.000003 0.000000 -0.000000 -0.000000 0.000002 -0.000002 -0.000000 0.000002 -0.000002 -0.000000 0.000002 -0.000002 
-3.558468 46.315178 135.184402 196.098337 196.178729 204.257176 0.000000 0.000000 -0.000001 -83.894770 12.342370 26.297618 49.810657 -24.539977 2.186136 13.116178 5.094602 9.767583 0.000000 -0.000000 -0.000002 0.000002 -0.000000 -0.000001 -87.106728 6.411640 -26.316647 107.966419 -20.929402 -11.227548 -36.283293 -6.671168 19.011304 -0.000000 -0.000000 -0.000000 -0.000001 -0.000001 -0.000003 30.411171 -5.134503 -6.845574 1.911174 -0.189057 -3.584966 1.905500 0.031349 -3.639888 -1.092489 0.595960 3.822799 -37.480151 9.692383 -7.681225 0.000000 0.000000 -0.000000 0.000000 0.000000 -0.000000 0.000000 0.000000 -0.000000 0.000000 0.000000 -0.000000 -0.000001 0.000000 -0.000000 0.000000 0.000000 -0.000000 -0.000001 0.000000 -0.000000 0.000000 0.000000 -0.000000 0.000000 0.000000 -0.000000 1.207305 -7.608027 7.203771 -32.753803 38.530514 -42.930652 -66.832513 -3.708900 -6.299078 39.479262 4.574750 5.218051 -5.717682 5.762983 1.422931 -1.377526 3.221609 -0.928615 0.000002 -0.000004 0.000001 0.065801 4.353876 11.390781 0.968662 -1.071622 -17.776341 0.000002 0.000000 0.000003 -0.017925 4.825340 0.416509 -0.022166 -4.851091 -16.460500 0.000002 -0.000002 0.000000 0.011036 0.020885 -7.483335 -0.068453 -1.294760 -28.993733 -0.000001 0.000000 -0.000003 0.009843 0.005360 -15.066482 1.013117 1.644686 -25.592922 -0.000002 -0.000003 0.000003 0.000001 0.000000 0.000001 3.592069 -12.749720 6.798389 22.747238 8.514441 22.294371 -88.518493 2.833451 2.052995 -12.502509 -54.180865 -15.801212 24.918309 -21.323369 30.343033 9.041930 8.262097 -18.001799 0.000000 0.000000 0.000002 -0.063517 -3.017265 61.424397 0.006482 4.395167 66.609173 0.000000 0.000001 0.000004 -1.221730 -0.129494 68.273690 -0.078684 4.899251 84.501755 0.000000 -0.000000 -0.000001 0.882072 -4.623020 79.192669 -0.721551 1.141037 73.254359 -0.000000 0.000001 -0.000003 -3.962375 0.099749 86.766816 -0.027255 0.052912 54.416134 -0.000000 0.000001 0.000001 -0.000002 0.000000 -0.000000 -0.000000 0.000000 -0.000000 0.000002 -0.000000 -0.000001 -0.000000 0.000000 0.000000 -0.000000 0.000000 0.000000 -0.000000 0.000000 -0.000000 0.000002 -0.000000 -0.000000 -0.000000 0.000000 0.000000 -0.000000 0.000000 0.000000 -0.000000 0.000000 -0.000000 0.000002 -0.000000 -0.000000 0.000000 0.000000 -0.000001 0.000000 0.000000 -0.000001 0.000000 0.000000 -0.000001 
-1.845339 45.604034 140.469849 197.715562 200.907501 205.621233 -0.000001 0.000000 -0.000001 -83.289089 17.401901 23.899003 34.101502 -31.055023 -0.241271 28.270450 4.160173 4.753177 0.000001 -0.000001 -0.000001 -0.000001 0.000001 -0.000000 -88.350416 8.302051 -27.828914 108.109559 -31.592890 -12.804098 -27.567081 -8.657235 30.219967 -0.000000 -0.000001 0.000000 0.000002 0.000000 -0.000003 29.961649 -4.771691 -7.153138 1.350881 -0.178190 -3.825286 1.344216 0.053090 -3.878496 -1.651686 0.208315 2.708736 -36.413586 13.014996 -6.189827 0.000000 0.000001 -0.000000 0.000000 0.000001 -0.000000 0.000000 0.000001 -0.000000 0.000000 0.000001 -0.000000 -0.000000 0.000001 -0.000000 0.000000 0.000001 -0.000000 -0.000000 0.000001 -0.000000 0.000000 0.000001 -0.000000 0.000000 0.000001 -0.000000 1.048358 -9.100009 6.816066 -38.265619 31.485079 -37.841867 -55.455590 -4.320108 -5.329762 40.903042 6.822626 4.691136 -7.451814 7.366754 1.902185 -1.685794 4.267080 -1.088015 -0.000001 -0.000001 0.000002 0.226879 3.993968 11.398583 0.962239 -1.136204 -15.841522 0.000001 0.000001 -0.000002 -0.016423 4.699553 0.382707 -0.022025 -4.850329 -16.377743 0.000000 0.000001 -0.000001 0.225934 1.703158 -7.577110 -0.054340 -1.280243 -27.743612 -0.000000 0.000001 -0.000003 0.456445 1.732216 -14.930797 1.073412 1.715445 -26.096874 -0.000000 -0.000000 -0.000002 0.000005 -0.000000 0.000001 5.160686 -16.105402 11.219042 20.746302 10.486222 16.889933 -86.525991 2.234842 1.645290 -13.094130 -54.357080 -17.048702 24.918311 -21.323369 30.343033 9.041934 8.262090 -18.001797 -0.000000 -0.000001 0.000001 -0.063519 -3.017266 61.424397 0.006487 4.395169 66.609173 0.000001 -0.000001 -0.000002 -1.221730 -0.129493 68.273690 -0.078683 4.899252 84.501762 -0.000000 0.000001 0.000003 0.882074 -4.623022 79.192669 -0.721556 1.141037 73.254359 -0.000001 -0.000001 -0.000000 -3.962376 0.099749 86.766816 -0.027255 0.052908 54.416134 -0.000001 -0.000001 0.000004 -0.000000 0.000003 0.000000 0.000002 0.000001 -0.000001 0.000002 0.000001 -0.000001 0.000002 0.000001 -0.000000 0.000002 0.000001 -0.000000 0.000002 0.000001 -0.000001 0.000002 0.000001 -0.000001 0.000002 0.000001 -0.000000 0.000002 0.000001 -0.000000 0.000002 0.000001 -0.000001 0.000002 0.000001 -0.000001 -0.000001 0.000000 -0.000001 -0.000001 0.000000 -0.000001 -0.000001 0.000000 -0.000001 
